<?xml version="1.0" encoding="utf-8"?>
<!-- Generator: Adobe Illustrator 16.0.3, SVG Export Plug-In . SVG Version: 6.00 Build 0)  -->
<!DOCTYPE svg PUBLIC "-//W3C//DTD SVG 1.0//EN" "http://www.w3.org/TR/2001/REC-SVG-20010904/DTD/svg10.dtd">
<svg version="1.0" id="Layer_1" xmlns="http://www.w3.org/2000/svg" xmlns:xlink="http://www.w3.org/1999/xlink" x="0px" y="0px"
	 width="367.81px" height="152.667px" viewBox="0 0 367.81 152.667" enable-background="new 0 0 367.81 152.667"
	 xml:space="preserve">
<text transform="matrix(1 0 0 1 0 102.5767)" fill="#23BFD0" font-family="'Interstate-Bold'" font-size="72">EPIST</text>
<text transform="matrix(1 0 0 1 212.9194 102.5767)" fill="#5D8285" font-family="'Interstate-Bold'" font-size="72">E</text>
<text transform="matrix(-1 0 0 -1 367.8101 52.5767)" fill="#5D8285" font-family="'Interstate-Bold'" font-size="72">E</text>
<text transform="matrix(1 0 0 1 261.1616 102.5767)" fill="#26BFD0" font-family="'Interstate-Bold'" font-size="72">M</text>
<circle fill="#5D8285" cx="290.54" cy="39.307" r="9.459"/>
<text transform="matrix(1 0 0 1 3.5933 123.5503)" fill="#5D8285" font-family="'SegoeUI'" font-size="14">Integrated Technology CoE Platform</text>
<path fill="none" d="M316.059,15.754c27.541,13.455,38.957,46.689,25.504,74.23c-13.454,27.539-46.688,38.959-74.229,25.505
	c-27.537-13.454-38.959-46.689-25.505-74.23C255.284,13.719,288.518,2.3,316.059,15.754z"/>
<text transform="matrix(0.5083 -0.8612 0.8612 0.5083 241.4536 41.5225)"><tspan x="0" y="0" fill="#5D8285" font-family="'Shruti-Bold'" font-size="36">.</tspan><tspan x="8.71" y="-0.072" fill="#5D8285" font-family="'Shruti-Bold'" font-size="36" rotate="8.979">.</tspan><tspan x="17.289" y="1.209" fill="#5D8285" font-family="'Shruti-Bold'" font-size="36" rotate="17.98">.</tspan><tspan x="25.607" y="3.835" fill="#5D8285" font-family="'Shruti-Bold'" font-size="36" rotate="26.989">.</tspan><tspan x="33.392" y="7.722" fill="#5D8285" font-family="'Shruti-Bold'" font-size="36" rotate="35.92">.</tspan><tspan x="40.481" y="12.768" fill="#5D8285" font-family="'Shruti-Bold'" font-size="36" rotate="44.825">.</tspan><tspan x="46.703" y="18.85" fill="#5D8285" font-family="'Shruti-Bold'" font-size="36" rotate="53.753">.</tspan><tspan x="51.905" y="25.824" fill="#5D8285" font-family="'Shruti-Bold'" font-size="36" rotate="62.738">.</tspan><tspan x="55.951" y="33.516" fill="#5D8285" font-family="'Shruti-Bold'" font-size="36" rotate="71.752">.</tspan><tspan x="58.742" y="41.76" fill="#5D8285" font-family="'Shruti-Bold'" font-size="36" rotate="80.73">.</tspan><tspan x="60.214" y="50.337" fill="#5D8285" font-family="'Shruti-Bold'" font-size="36" rotate="89.569">.</tspan><tspan x="60.353" y="59.036" fill="#5D8285" font-family="'Shruti-Bold'" font-size="36" rotate="98.534">.</tspan><tspan x="59.132" y="67.65" fill="#5D8285" font-family="'Shruti-Bold'" font-size="36" rotate="107.56">.</tspan><tspan x="56.573" y="75.974" fill="#5D8285" font-family="'Shruti-Bold'" font-size="36" rotate="116.558">.</tspan><tspan x="52.745" y="83.79" fill="#5D8285" font-family="'Shruti-Bold'" font-size="36" rotate="125.495">.</tspan><tspan x="47.671" y="90.921" font-family="'Shruti-Bold'" font-size="21" rotate="133.717"> </tspan><tspan x="42.601" y="96.301" font-family="'Shruti-Bold'" font-size="21" rotate="141.298"> </tspan><tspan x="36.886" y="100.946" font-family="'Shruti-Bold'" font-size="21" rotate="148.892"> </tspan></text>
<polygon fill="#5D8285" points="237.398,35.815 245.272,40.114 237.265,44.215 "/>
<path fill="none" d="M266.823,139.88c-27.367-13.807-38.358-47.184-24.553-74.55c13.805-27.366,47.181-38.36,74.549-24.553
	c27.363,13.805,38.359,47.184,24.553,74.55C327.567,142.693,294.189,153.685,266.823,139.88z"/>
<text transform="matrix(-0.5192 0.8546 -0.8546 -0.5192 341.7368 115.1343)"><tspan x="0" y="0" fill="#5D8285" font-family="'Shruti-Bold'" font-size="36">.</tspan><tspan x="8.709" y="-0.071" fill="#5D8285" font-family="'Shruti-Bold'" font-size="36" rotate="8.984">.</tspan><tspan x="17.288" y="1.208" fill="#5D8285" font-family="'Shruti-Bold'" font-size="36" rotate="17.98">.</tspan><tspan x="25.606" y="3.836" fill="#5D8285" font-family="'Shruti-Bold'" font-size="36" rotate="26.99">.</tspan><tspan x="33.391" y="7.722" fill="#5D8285" font-family="'Shruti-Bold'" font-size="36" rotate="35.921">.</tspan><tspan x="40.48" y="12.768" fill="#5D8285" font-family="'Shruti-Bold'" font-size="36" rotate="44.826">.</tspan><tspan x="46.701" y="18.849" fill="#5D8285" font-family="'Shruti-Bold'" font-size="36" rotate="53.754">.</tspan><tspan x="51.903" y="25.824" fill="#5D8285" font-family="'Shruti-Bold'" font-size="36" rotate="62.738">.</tspan><tspan x="55.948" y="33.516" fill="#5D8285" font-family="'Shruti-Bold'" font-size="36" rotate="71.755">.</tspan><tspan x="58.741" y="41.76" fill="#5D8285" font-family="'Shruti-Bold'" font-size="36" rotate="80.732">.</tspan><tspan x="60.212" y="50.337" fill="#5D8285" font-family="'Shruti-Bold'" font-size="36" rotate="89.57">.</tspan><tspan x="60.35" y="59.035" fill="#5D8285" font-family="'Shruti-Bold'" font-size="36" rotate="98.535">.</tspan><tspan x="59.129" y="67.652" fill="#5D8285" font-family="'Shruti-Bold'" font-size="36" rotate="107.561">.</tspan><tspan x="56.57" y="75.975" fill="#5D8285" font-family="'Shruti-Bold'" font-size="36" rotate="116.559">.</tspan><tspan x="52.742" y="83.79" fill="#5D8285" font-family="'Shruti-Bold'" font-size="36" rotate="125.494">.</tspan><tspan x="48.044" y="90.917" fill="#5D8285" font-family="'Shruti-Bold'" font-size="36" rotate="136.432"> </tspan><tspan x="38.945" y="99.779" font-family="'Shruti-Bold'" font-size="36" rotate="149.459"> </tspan><tspan x="28.104" y="106.352" font-family="'Shruti-Bold'" font-size="36" rotate="162.56"> </tspan><tspan x="16.095" y="110.167" font-family="'Shruti-Bold'" font-size="36" rotate="174.559"> </tspan></text>
<polygon fill="#5D8285" points="345.419,121.047 337.624,116.609 345.703,112.652 "/>
</svg>
