<?xml version="1.0" encoding="utf-8"?>
<!-- Generator: Adobe Illustrator 17.0.1, SVG Export Plug-In . SVG Version: 6.00 Build 0)  -->
<!DOCTYPE svg PUBLIC "-//W3C//DTD SVG 1.1//EN" "http://www.w3.org/Graphics/SVG/1.1/DTD/svg11.dtd">
<svg version="1.1" id="Layer_1" xmlns="http://www.w3.org/2000/svg" xmlns:xlink="http://www.w3.org/1999/xlink" x="0px" y="0px"
	 width="800px" height="900px" viewBox="0 0 800 900" enable-background="new 0 0 800 900" xml:space="preserve">
<polyline fill="none" stroke="#000000" stroke-width="3" stroke-miterlimit="10" points="59.283,54.827 72.783,54.827 
	87.783,110.827 141.783,110.827 145.783,98.327 "/>
<polygon fill="none" stroke="#000000" stroke-width="3" stroke-miterlimit="10" points="82.805,57.327 147.305,57.327 
	135.805,103.327 95.305,103.327 "/>
<circle fill="none" stroke="#000000" stroke-width="3" stroke-miterlimit="10" cx="97.283" cy="124" r="7.25"/>
<circle fill="none" stroke="#000000" stroke-width="3" stroke-miterlimit="10" cx="129.466" cy="124" r="7.25"/>
<polygon fill="none" stroke="#000000" stroke-width="3" stroke-miterlimit="10" points="59.22,231.667 149.053,231.667 
	149.053,297.667 132.553,297.667 133.47,312.333 116.053,297.667 59.22,296.75 "/>
<polygon fill="none" stroke="#000000" stroke-width="3" stroke-miterlimit="10" points="87.618,438.333 148.122,438.333 
	148.122,482.785 137.009,482.785 137.626,492.663 125.896,482.785 87.618,482.167 "/>
<rect x="83.771" y="258.833" width="7.875" height="7"/>
<rect x="98.896" y="258.833" width="7.875" height="7"/>
<rect x="114.021" y="258.833" width="7.875" height="7"/>
<path fill="none" stroke="#000000" stroke-width="3" stroke-miterlimit="10" d="M87.618,455.606"/>
<polyline fill="none" stroke="#000000" stroke-width="3" stroke-miterlimit="10" points="88,455 60,455 60,412 120.667,412 
	120.667,438.667 "/>
<path fill="none" stroke="#000000" stroke-width="3" stroke-miterlimit="10" d="M87.618,624.606"/>
<path fill="none" stroke="#000000" stroke-width="3" stroke-miterlimit="10" d="M120.929,626.204
	c0,8.729-7.076,15.805-15.805,15.805l0,0c-8.729,0-15.805-7.076-15.805-15.805v-28.449c0-8.729,7.076-15.805,15.805-15.805l0,0
	c8.729,0,15.805,7.076,15.805,15.805V626.204z"/>
<path fill="none" stroke="#000000" stroke-width="3" stroke-miterlimit="10" d="M125.566,615.386v11.027
	c0,12.281-9.152,21.433-20.442,21.433l0,0c-11.29,0-20.442-9.152-20.442-20.442v-11.027"/>
<rect x="103.591" y="647.847" stroke="#000000" stroke-miterlimit="10" width="1.982" height="9.229"/>
<polyline fill="none" stroke="#020202" stroke-width="2" stroke-miterlimit="10" points="90.334,661.787 87.168,656.043 
	121.097,656.043 118.293,661.787 "/>
<path fill="none" stroke="#000000" stroke-width="3" stroke-miterlimit="10" d="M93.677,783.108"/>
<path fill="none" stroke="#000000" stroke-width="3" stroke-miterlimit="10" d="M102.186,796.357c0,1.565-1.268,2.833-2.833,2.833
	H69.136c-1.565,0-2.833-1.268-2.833-2.833v-55.524c0-1.565,1.268-2.833,2.833-2.833h30.217c1.565,0,2.833,1.268,2.833,2.833V796.357
	z"/>
<path fill="none" stroke="#000000" stroke-width="3" stroke-miterlimit="10" d="M138.447,796.357c0,1.565-1.268,2.833-2.833,2.833
	h-30.217c-1.565,0-2.833-1.268-2.833-2.833v-55.524c0-1.565,1.268-2.833,2.833-2.833h30.217c1.565,0,2.833,1.268,2.833,2.833
	V796.357z"/>
<rect x="101.179" y="800.449" width="3.022" height="7.051"/>
<rect x="99.668" y="795.728" width="6.043" height="6.169"/>
</svg>
